<svg xmlns="http://www.w3.org/2000/svg" width="375" height="658" fill="none"><g stroke="#D0D5F6" stroke-width="2"><path d="M172.71-101S19.58-68.57 13.273 18.074c-6.307 86.643 231.598 17.186 136.358 198-95.241 180.813-181.318 185.289-136.358 298C58.233 626.785 178.96 685.953 319.21 641.2c140.251-44.754 153.453-332.126 153.453-332.126"/><path d="M214.7-101S94.575-72.519 89.628 3.575c-4.948 76.093 181.679 15.094 106.966 173.89C121.882 336.262 54.359 340.192 89.628 439.179c35.269 98.986 129.974 150.95 239.995 111.646C439.643 511.521 450 259.141 450 259.141"/><path d="M250.935-103s-90.905 24.841-94.649 91.208c-3.744 66.367 137.487 13.165 80.948 151.664s-107.638 141.927-80.948 228.261c26.69 86.335 98.359 131.656 181.618 97.376S429 211.108 429 211.108"/></g></svg>